<svg width="48" height="48" viewBox="0 0 48 48" fill="none" xmlns="http://www.w3.org/2000/svg">
<g clip-path="url(#clip0_4_2)">
<path d="M41 5H7L10 39L24 43L38 39L41 5Z" fill="#7C3AED"/>
<path d="M24 8V39.9L35.2 36.7L37.7 8H24Z" fill="#945FED"/>
<path d="M35 13.5H27V24.5L32.5 23.5H33L32 28.5L27 30V32V32.5L32.5 30H33L32.5 30.5L32 31H28H27.5V31.5H28V30.5L31.5 29.5L30 30.5L32.5 29L33 28.5V29.5L33.5 23.5L32.5 28L33.5 22V21.5L28.5 23H32.5L33 22.5H32.5H32L28 23.5V16V14.5H34.5H35" stroke="white"/>
<path d="M26 12.5H35.5L35 15H28.5V22L34.5 21L33.5 31L26 33V29.5L31.5 28L32 24.5L26 25.5V12.5Z" stroke="white"/>
<path d="M18.5 12V12.5M18.5 12.5V29L12 27V30.5L21 33V12.5H18.5ZM20 13V31.5V32V32.5L12.5 30V27.5L19 29.8214M19.5 31V30L19 29.8214M19.5 31V31.5V32L13 29.5V28.5L18.5 30.5H19V31.5L16.5 30.5L19.5 31ZM19 13V29V29.8214" stroke="white"/>
</g>
<defs>
<clipPath id="clip0_4_2">
<rect width="48" height="48" fill="white"/>
</clipPath>
</defs>
</svg>
